<?xml version="1.0" encoding="utf-8"?>
<!-- Generator: Adobe Illustrator 23.1.0, SVG Export Plug-In . SVG Version: 6.00 Build 0)  -->
<svg version="1.1" id="Calque_1" xmlns="http://www.w3.org/2000/svg" xmlns:xlink="http://www.w3.org/1999/xlink" x="0px" y="0px"
	 viewBox="0 0 2200 693" style="enable-background:new 0 0 2200 693;" xml:space="preserve">
<style type="text/css">
	.st0{fill:#13294B;}
	.st1{fill:#840032;}
	.st2{fill:#007373;}
</style>
<g>
	<g>
		<polygon class="st0" points="397.87,56.57 251.08,310.83 170.73,450 223.67,450.03 397.87,148.3 659.01,600.6 685.49,554.74 		"/>
	</g>
</g>
<g>
	<g>
		<polygon class="st1" points="451.25,489 103.03,488.82 363.89,37 310.96,37 23.44,535 477.86,535 		"/>
	</g>
</g>
<g>
	<g>
		<polygon class="st2" points="398.09,226.27 371.53,272.27 546.31,575 22.51,575 49.07,621 625.99,621 		"/>
	</g>
</g>
<g>
	<path class="st0" d="M1154.47,206.2l-108.51,239.08c-8.66,19.38-19.47,32.75-32.45,40.11c-12.98,7.36-33.4,11.03-61.26,11.03H766.9
		l100.46-220.65h100.46l-64.38,143.55h27.78c9.35,0,16.61-1.64,21.81-4.93c5.19-3.29,9.78-9.09,13.76-17.39l68.53-151.08
		c0.69-1.38,1.21-2.77,1.56-4.15c0.34-1.38,0.52-2.77,0.52-4.15c0-4.5-1.78-8.13-5.32-10.9c-3.55-2.77-8.18-4.15-13.89-4.15H891.25
		l35.04-77.1h184.05c15.58,0,27.86,3.46,36.86,10.38c9,6.92,13.5,16.27,13.5,28.04c0,2.94-0.52,6.27-1.56,9.99
		C1158.11,197.59,1156.55,201.7,1154.47,206.2z"/>
	<path class="st0" d="M1086.98,496.42l100.46-220.65h190.8l-35.04,77.1h-89.3l-30.37,66.46h89.3l-35.04,77.1H1086.98z
		 M1437.17,145.45l-35.04,77.1h-190.8l35.04-77.1H1437.17z"/>
	<path class="st0" d="M1601.49,145.45l-124.34,273.87h94.75l-35.3,77.1H1340.6l159.39-350.97H1601.49z"/>
	<path class="st0" d="M1790.99,275.77l-99.94,220.65h-101.76l99.94-220.65H1790.99z M1895.09,222.55h-271.53l35.04-77.1h271.53
		L1895.09,222.55z"/>
	<path class="st0" d="M1954.54,145.45h166.92c12.11,0,21.68,3.2,28.69,9.6c7.01,6.4,10.51,15.15,10.51,26.22
		c0,2.94-0.17,5.71-0.52,8.31c-0.35,2.6-0.87,5.11-1.56,7.53l-87.22,299.31h-334.87l183.01-220.65h104.62l-109.03,143.55h75.54
		l55.81-178.6c0-0.17,0.08-0.43,0.26-0.78c0.52-2.25,0.78-4.15,0.78-5.71c0-3.46-1.3-6.27-3.89-8.44c-2.6-2.16-6.06-3.25-10.38-3.25
		h-112.66L1954.54,145.45z"/>
</g>
<g>
</g>
<g>
</g>
<g>
</g>
<g>
</g>
<g>
</g>
<g>
</g>
<g>
</g>
<g>
</g>
<g>
</g>
<g>
</g>
<g>
</g>
<g>
</g>
<g>
</g>
<g>
</g>
<g>
</g>
</svg>
